<svg xmlns="http://www.w3.org/2000/svg" width="304" height="42" viewBox="0 0 304 42"><defs><style>.a{opacity:0.5;}.b{fill:#37357d;}</style></defs><g class="a" transform="translate(-14 -1036)"><circle class="b" cx="3" cy="3" r="3" transform="translate(14 1036)"/><circle class="b" cx="3" cy="3" r="3" transform="translate(33 1054)"/><circle class="b" cx="3" cy="3" r="3" transform="translate(14 1072)"/><circle class="b" cx="3" cy="3" r="3" transform="translate(51 1072)"/><circle class="b" cx="3" cy="3" r="3" transform="translate(51 1036)"/><circle class="b" cx="3" cy="3" r="3" transform="translate(88 1036)"/><circle class="b" cx="3" cy="3" r="3" transform="translate(70 1054)"/><circle class="b" cx="3" cy="3" r="3" transform="translate(88 1072)"/><circle class="b" cx="3" cy="3" r="3" transform="translate(107 1054)"/><circle class="b" cx="3" cy="3" r="3" transform="translate(125 1036)"/><circle class="b" cx="3" cy="3" r="3" transform="translate(125 1072)"/><circle class="b" cx="3" cy="3" r="3" transform="translate(144 1054)"/><circle class="b" cx="3" cy="3" r="3" transform="translate(162 1036)"/><circle class="b" cx="3" cy="3" r="3" transform="translate(163 1072)"/><circle class="b" cx="3" cy="3" r="3" transform="translate(181 1054)"/><circle class="b" cx="3" cy="3" r="3" transform="translate(201 1036)"/><circle class="b" cx="3" cy="3" r="3" transform="translate(201 1072)"/><circle class="b" cx="3" cy="3" r="3" transform="translate(218 1054)"/><circle class="b" cx="3" cy="3" r="3" transform="translate(238 1036)"/><circle class="b" cx="3" cy="3" r="3" transform="translate(238 1072)"/><circle class="b" cx="3" cy="3" r="3" transform="translate(256 1054)"/><circle class="b" cx="3" cy="3" r="3" transform="translate(275 1036)"/><circle class="b" cx="3" cy="3" r="3" transform="translate(275 1072)"/><circle class="b" cx="3" cy="3" r="3" transform="translate(293 1054)"/><circle class="b" cx="3" cy="3" r="3" transform="translate(312 1036)"/><circle class="b" cx="3" cy="3" r="3" transform="translate(312 1072)"/></g></svg>